<svg width="20" height="20" viewBox="0 0 20 20" fill="none" xmlns="http://www.w3.org/2000/svg">
<path d="M7.50688 8.95833C9.46021 8.95833 11.0485 7.36917 11.0485 5.41667C11.0485 3.46417 9.46021 1.875 7.50688 1.875C5.55354 1.875 3.96521 3.46417 3.96521 5.41667C3.96521 7.36917 5.55354 8.95833 7.50688 8.95833ZM7.50688 3.125C8.77104 3.125 9.79854 4.1525 9.79854 5.41667C9.79854 6.68083 8.77104 7.70833 7.50688 7.70833C6.24271 7.70833 5.21521 6.68083 5.21521 5.41667C5.21521 4.1525 6.24271 3.125 7.50688 3.125ZM13.9577 15.0159V17.5C13.9577 17.845 13.6777 18.125 13.3327 18.125C12.9877 18.125 12.7077 17.845 12.7077 17.5V15.0159C12.7077 14.1817 12.4518 11.4583 9.16602 11.4583H5.83268C2.54685 11.4583 2.29102 14.1809 2.29102 15.0159V17.5C2.29102 17.845 2.01102 18.125 1.66602 18.125C1.32102 18.125 1.04102 17.845 1.04102 17.5V15.0159C1.04102 12.7984 2.29602 10.2083 5.83268 10.2083H9.16602C12.7027 10.2083 13.9577 12.7975 13.9577 15.0159ZM11.7952 8.51329C11.5485 8.27162 11.5435 7.87586 11.7851 7.62919C12.0276 7.38252 12.4235 7.3792 12.6693 7.62004C12.9685 7.91337 13.3701 8.07495 13.7985 8.07495C14.7193 8.07495 15.441 7.35414 15.441 6.43331C15.441 5.52831 14.7043 4.79167 13.7985 4.79167C13.5418 4.79167 13.3102 4.84418 13.1094 4.94751C12.8036 5.10668 12.4261 4.9842 12.2677 4.67753C12.1094 4.37086 12.231 3.99419 12.5377 3.83586C12.9177 3.64086 13.3418 3.54167 13.7985 3.54167C15.3935 3.54167 16.691 4.83914 16.691 6.43331C16.691 8.02748 15.3935 9.32495 13.7985 9.32495C13.041 9.32495 12.3302 9.03662 11.7952 8.51329ZM18.9577 13.9V15.8333C18.9577 16.1783 18.6777 16.4583 18.3327 16.4583C17.9877 16.4583 17.7077 16.1783 17.7077 15.8333V13.9C17.7077 13.2842 17.5185 11.275 15.091 11.275H13.8318C13.4868 11.275 13.2068 10.995 13.2068 10.65C13.2068 10.305 13.4868 10.025 13.8318 10.025H15.091C17.9452 10.025 18.9577 12.1125 18.9577 13.9Z" fill="#C9A94D"/>
</svg>
