<svg width="20" height="20" viewBox="0 0 20 20" fill="none" xmlns="http://www.w3.org/2000/svg">
<path d="M11.9008 8.4C13.2008 8.4 14.0008 6.5 14.0008 5.3C14.0008 4.3 13.5008 3.1 12.5008 3.1C11.2008 3.1 10.4008 5 10.4008 6.2C10.4008 7.2 10.9008 8.4 11.9008 8.4ZM8.10078 8.4C9.10078 8.4 9.60078 7.2 9.60078 6.2C9.60078 4.9 8.80078 3 7.50078 3C6.50078 3 6.00078 4.2 6.00078 5.2C5.90078 6.5 6.70078 8.4 8.10078 8.4ZM15.5008 7.4C14.2008 7.4 13.3008 9.2 13.3008 10.5C13.3008 11.4 13.7008 12.3 14.6008 12.3C15.9008 12.3 16.8008 10.5 16.8008 9.2C16.8008 8.3 16.3008 7.4 15.5008 7.4ZM6.80078 10.5C6.80078 9.2 5.80078 7.4 4.60078 7.4C3.70078 7.4 3.30078 8.3 3.30078 9.2C3.30078 10.5 4.30078 12.3 5.50078 12.3C6.40078 12.3 6.80078 11.4 6.80078 10.5ZM10.0008 10.3C8.00078 10.3 5.30078 13.5 5.30078 15.7C5.30078 16.7 6.00078 17 6.80078 17C8.00078 17 8.90078 16.2 10.0008 16.2C11.0008 16.2 11.9008 17 13.0008 17C13.8008 17 14.7008 16.8 14.7008 15.7C14.7008 13.5 12.0008 10.3 10.0008 10.3Z" fill="#C9A94D"/>
</svg>
