<svg width="20" height="20" viewBox="0 0 20 20" fill="none" xmlns="http://www.w3.org/2000/svg">
<g clip-path="url(#clip0_3132_12405)">
<path d="M7.04485 11.3144C7.33863 11.0202 7.49977 10.5746 7.49934 10.0607C7.49934 9.87801 7.4786 9.6884 7.4375 9.49715C7.19699 8.37777 6.3352 7.50129 5.475 7.50129C5.07949 7.50129 4.72957 7.68156 4.48949 8.00871C4.2775 8.29719 4.16559 8.67766 4.16602 9.10855C4.16602 9.29086 4.18676 9.48004 4.22785 9.67172V9.67211C4.46832 10.7915 5.33016 11.668 6.19035 11.668C6.51828 11.668 6.81371 11.5455 7.04485 11.3144ZM14.5237 7.50129C13.6635 7.50129 12.8017 8.37777 12.5612 9.49715C12.5201 9.6884 12.4993 9.87801 12.4993 10.0603C12.4989 10.5746 12.6601 11.0202 12.9538 11.3144C13.185 11.5455 13.4804 11.668 13.8083 11.668C14.6685 11.668 15.5303 10.7915 15.7708 9.67211V9.67172C15.8119 9.48008 15.8327 9.29086 15.8327 9.10898C15.833 8.67766 15.7212 8.29723 15.5092 8.00871C15.2691 7.68156 14.9192 7.50129 14.5237 7.50129ZM13.7009 6.32902V6.32863C13.7285 6.18447 13.7444 6.03832 13.7485 5.8916C13.7623 5.34227 13.5992 4.86375 13.2883 4.54477C13.0479 4.29816 12.7406 4.16797 12.3993 4.16797C11.5281 4.16797 10.678 5.04891 10.4645 6.17398C10.4369 6.31815 10.421 6.4643 10.4168 6.61102C10.403 7.16035 10.5662 7.63887 10.877 7.95785C11.1175 8.20445 11.4247 8.33465 11.7661 8.33465C12.6373 8.33461 13.4873 7.45367 13.7009 6.32902Z" fill="#C9A94D"/>
<path d="M10 0C4.48609 0 0 4.48609 0 10C0 15.5139 4.48609 20 10 20C15.5139 20 20 15.5139 20 10C20 4.48609 15.5139 0 10 0ZM10 18.3333C5.40488 18.3333 1.66668 14.5951 1.66668 10C1.66668 8.00191 2.37469 6.16695 3.55141 4.72977L8.55605 9.73437C8.17418 10.1234 7.98125 10.6316 7.84551 11.0066C7.7857 11.1714 7.71164 11.3769 7.66035 11.438C7.48984 11.6434 7.28031 11.8339 7.05813 12.0353C6.49051 12.55 5.84719 13.1336 5.83336 14.0853C5.82645 14.589 5.98187 15.0171 6.2834 15.3231C6.61258 15.6568 7.10004 15.8334 7.6925 15.8334C8.35941 15.8334 8.77934 15.6116 9.11664 15.4334C9.40555 15.2808 9.6334 15.1603 9.99961 15.1603C10.3662 15.1603 10.5945 15.2807 10.8834 15.4334C11.2207 15.6116 11.6411 15.8334 12.3075 15.8334C12.9 15.8334 13.3875 15.6568 13.7166 15.3231C13.7883 15.2504 13.8505 15.1697 13.9054 15.0838L15.2702 16.4486C13.833 17.6253 11.9981 18.3333 10 18.3333ZM16.4486 15.2702L12.1364 10.958C11.9095 10.3325 11.5282 9.38391 10.3834 9.20496L9.12781 7.94941C9.43461 7.63039 9.59625 7.15535 9.58254 6.61051C9.57843 6.46339 9.56251 6.31683 9.53492 6.17227C9.32129 5.04758 8.47129 4.16664 7.60012 4.16664C7.25871 4.16664 6.95152 4.29684 6.71105 4.54344C6.54687 4.71191 6.42695 4.92684 6.34953 5.17109L4.7298 3.55137C6.16695 2.37469 8.00191 1.66668 10 1.66668C14.5951 1.66668 18.3333 5.40488 18.3333 10C18.3333 11.9981 17.6253 13.833 16.4486 15.2702Z" fill="#C9A94D"/>
</g>
<defs>
<clipPath id="clip0_3132_12405">
<rect width="20" height="20" fill="white"/>
</clipPath>
</defs>
</svg>
