<svg width="19" height="19" viewBox="0 0 19 19" fill="none" xmlns="http://www.w3.org/2000/svg">
<g clip-path="url(#clip0_1248_9086)">
<path d="M18.4247 10.1226H17.7055H4.44343V3.87509C4.44343 3.05161 5.11335 2.38169 5.93679 2.38169C6.588 2.38169 7.14285 2.80082 7.3466 3.3834C6.32942 3.56858 5.55555 4.46045 5.55555 5.53031V6.06959C5.55555 6.37669 5.80452 6.62567 6.11162 6.62567H9.86084C10.1679 6.62567 10.4169 6.37669 10.4169 6.06959V5.53031C10.4169 4.41381 9.5742 3.49102 8.49152 3.3632C8.253 2.17078 7.19827 1.26953 5.93679 1.26953C4.50011 1.26953 3.33127 2.43837 3.33127 3.87509V10.1226H1.27527H0.556077C0.248974 10.1226 0 10.3716 0 10.6787C0 10.9858 0.248974 11.2347 0.556077 11.2347H0.824848L1.3456 13.6887C1.5354 14.5833 2.03131 15.3929 2.74191 15.9685C2.7848 16.0033 2.82839 16.037 2.87258 16.0698L2.40959 16.8828C2.2576 17.1496 2.35072 17.4892 2.6176 17.6411C2.70446 17.6906 2.799 17.7141 2.89227 17.7141C3.0856 17.7141 3.27348 17.6131 3.37598 17.4331L3.84935 16.6019C4.29848 16.7713 4.77733 16.8612 5.26197 16.8612H13.7188C14.2034 16.8612 14.6823 16.7713 15.1314 16.6019L15.6048 17.4331C15.7073 17.6132 15.8952 17.7141 16.0885 17.7141C16.1818 17.7141 16.2763 17.6906 16.3632 17.6411C16.63 17.4892 16.7232 17.1496 16.5712 16.8828L16.1082 16.0698C16.1524 16.037 16.196 16.0033 16.2389 15.9685C16.9495 15.3929 17.4454 14.5833 17.6352 13.6887L18.1559 11.2347H18.4247C18.7318 11.2347 18.9808 10.9858 18.9808 10.6787C18.9808 10.3716 18.7318 10.1226 18.4247 10.1226ZM9.30462 5.51347H6.66785C6.67686 4.93085 7.1536 4.45963 7.7383 4.45963H8.23413C8.81887 4.45963 9.29561 4.93085 9.30462 5.51347ZM16.5473 13.4578C16.2655 14.7855 15.076 15.7491 13.7188 15.7491H5.26197C3.90477 15.7491 2.71521 14.7855 2.43347 13.4578L1.96173 11.2347H17.019L16.5473 13.4578Z" fill="#C9A94D"/>
<path d="M9.06881 7.4043C9.06833 7.4043 9.06792 7.4043 9.06744 7.4043C8.76034 7.40504 8.51199 7.65457 8.5127 7.96171L8.51488 8.87497C8.51563 9.18159 8.76441 9.42972 9.07092 9.42972H9.0723C9.3794 9.42897 9.62774 9.17944 9.62704 8.8723L9.62485 7.95904C9.62415 7.65238 9.37532 7.4043 9.06881 7.4043Z" fill="#C9A94D"/>
<path d="M6.90344 7.4043C6.59697 7.4043 6.34814 7.65238 6.3474 7.95904L6.34522 8.8723C6.34448 9.17944 6.59286 9.42901 6.89996 9.42972H6.90133C7.2078 9.42972 7.45663 9.18163 7.45737 8.87497L7.45956 7.96171C7.4603 7.65457 7.21192 7.405 6.90482 7.4043C6.90437 7.4043 6.90393 7.4043 6.90344 7.4043Z" fill="#C9A94D"/>
</g>
<defs>
<clipPath id="clip0_1248_9086">
<rect width="18.9808" height="18.9808" fill="white"/>
</clipPath>
</defs>
</svg>
