<svg width="19" height="19" viewBox="0 0 19 19" fill="none" xmlns="http://www.w3.org/2000/svg">
<g clip-path="url(#clip0_1248_9079)">
<path d="M18.0537 9.51628V9.15479C18.0537 8.48887 17.7089 7.90229 17.1888 7.56308V3.61982C17.1888 2.58233 16.3447 1.73828 15.3072 1.73828H3.67255C2.63506 1.73828 1.79097 2.58233 1.79097 3.61982V7.56304C1.27085 7.90225 0.926085 8.48884 0.926085 9.15476V9.51624C0.393511 9.65649 -0.000488281 10.1421 -0.000488281 10.7182V14.9479C-0.000488281 15.6133 0.525264 16.1582 1.18318 16.1891V16.6897C1.18318 16.9962 1.43167 17.2447 1.73818 17.2447C2.04469 17.2447 2.29318 16.9962 2.29318 16.6897V16.1906H16.6866V16.6897C16.6866 16.9962 16.9351 17.2447 17.2416 17.2447C17.5481 17.2447 17.7966 16.9962 17.7966 16.6897V16.1891C18.4545 16.1581 18.9803 15.6133 18.9803 14.9479V10.7182C18.9803 10.1421 18.5863 9.65649 18.0537 9.51628ZM2.90101 3.61982C2.90101 3.19439 3.24711 2.84829 3.67255 2.84829H15.3072C15.7327 2.84829 16.0788 3.19439 16.0788 3.61982V7.25535H15.3388V6.27709C15.3388 5.59238 14.7817 5.0353 14.097 5.0353H11.1105C10.4258 5.0353 9.86873 5.59238 9.86873 6.27709V7.25535H9.11106V6.27709C9.11106 5.59238 8.55398 5.0353 7.86927 5.0353H4.88283C4.19808 5.0353 3.64104 5.59238 3.64104 6.27709V7.25535H2.90101V3.61982ZM14.2287 6.27706V7.12356C14.2287 7.19622 14.1696 7.25531 14.097 7.25531H11.1105C11.0379 7.25531 10.9788 7.19618 10.9788 7.12356V6.27706C10.9788 6.2044 11.0379 6.1453 11.1105 6.1453H14.097C14.1696 6.1453 14.2287 6.2044 14.2287 6.27706ZM8.00102 6.27706V7.12356C8.00102 7.19622 7.94189 7.25531 7.86927 7.25531H4.88283C4.81017 7.25531 4.75108 7.19618 4.75108 7.12356V6.27706C4.75108 6.2044 4.81021 6.1453 4.88283 6.1453H7.86927C7.94189 6.1453 8.00102 6.2044 8.00102 6.27706ZM2.03613 9.15476C2.03613 8.71946 2.39027 8.36535 2.82557 8.36535H16.1542C16.5895 8.36535 16.9437 8.7195 16.9437 9.15476V9.47535H2.03613V9.15476ZM17.8702 14.9479C17.8702 15.021 17.8107 15.0806 17.7375 15.0806H1.24227C1.16909 15.0806 1.10952 15.021 1.10952 14.9479V10.7182C1.10952 10.645 1.16905 10.5854 1.24227 10.5854H17.7375C17.8107 10.5854 17.8703 10.645 17.8703 10.7182V14.9479H17.8702Z" fill="#C9A94D"/>
</g>
<defs>
<clipPath id="clip0_1248_9079">
<rect width="18.9808" height="18.9808" fill="white"/>
</clipPath>
</defs>
</svg>
