<svg width="24" height="24" viewBox="0 0 24 24" fill="none" xmlns="http://www.w3.org/2000/svg">
<path d="M1 8.99999L3 11C7.97 6.02999 16.03 6.02999 21 11L23 8.99999C16.93 2.92999 7.08 2.92999 1 8.99999ZM9 17L12 20L15 17C14.6064 16.6054 14.1388 16.2923 13.624 16.0786C13.1092 15.865 12.5574 15.755 12 15.755C11.4426 15.755 10.8908 15.865 10.376 16.0786C9.86117 16.2923 9.39359 16.6054 9 17ZM5 13L7 15C8.32646 13.6746 10.1249 12.9301 12 12.9301C13.8751 12.9301 15.6735 13.6746 17 15L19 13C15.14 9.13999 8.87 9.13999 5 13Z" fill="#C9A94D"/>
</svg>
