<svg width="24" height="24" viewBox="0 0 24 24" fill="none" xmlns="http://www.w3.org/2000/svg">
<path d="M20.274 9.86901L16.832 4.95401L18.471 3.80701L21.912 8.72201L20.274 9.86901ZM18.39 12.409L16.67 9.95001L8.478 15.686L10.198 18.143L8.56 19.291L3.972 12.737L5.61 11.59L7.33 14.048L15.522 8.31201L13.802 5.85401L15.44 4.70701L20.028 11.261L18.39 12.409ZM20.765 7.08301L22.403 5.93601L21.256 4.29801L19.618 5.44501L20.765 7.08301ZM7.168 19.046L3.726 14.131L2.088 15.278L5.529 20.193L7.168 19.046ZM4.382 18.555L2.744 19.702L1.597 18.064L3.235 16.917L4.382 18.555Z" fill="#C9A94D"/>
</svg>
