<svg width="32" height="29" viewBox="0 0 32 29" fill="none" xmlns="http://www.w3.org/2000/svg">
<g filter="url(#filter0_d_8_909)">
<path fill-rule="evenodd" clip-rule="evenodd" d="M27.98 14.287C27.9484 14.1453 27.8877 14.0117 27.8018 13.8947C27.7159 13.7777 27.6067 13.6797 27.481 13.607C27.2119 13.4491 26.9123 13.3502 26.602 13.317C26.2227 13.293 25.8423 13.293 25.463 13.317H21.987C21.277 13.317 20.568 13.387 19.849 13.437C18.789 13.517 17.731 13.627 16.682 13.717L11.377 14.227C10.677 14.287 9.918 14.227 9.189 14.287C8.85224 14.3106 8.51786 14.3607 8.189 14.437C8.12678 14.4516 8.07013 14.4839 8.02593 14.5301C7.98172 14.5762 7.95188 14.6342 7.94 14.697C7.86281 14.7161 7.7959 14.7641 7.75309 14.8311C7.71029 14.8981 7.69486 14.979 7.71 15.057C7.81 15.5077 7.88 15.9637 7.92 16.425C8 17.125 8.03 17.834 8.1 18.543V19.422C8.12 19.63 8.211 19.825 8.36 19.972C8.587 20.152 8.854 20.275 9.139 20.332C9.68026 20.3874 10.2257 20.3874 10.767 20.332L12.396 20.272H25.393C25.743 20.296 26.093 20.296 26.443 20.272C26.6334 20.2483 26.8187 20.1943 26.992 20.112C27.278 19.982 27.506 19.75 27.632 19.462C27.7553 19.1625 27.8292 18.8451 27.851 18.522C27.909 18.102 27.9423 17.6793 27.951 17.254V15.396C28.004 15.029 28.014 14.656 27.981 14.286M14.824 19.331L12.337 19.431L10.688 19.541C10.2672 19.5912 9.84373 19.6146 9.42 19.611C9.20187 19.6126 8.98866 19.5462 8.81 19.421L8.74 18.421C8.65 17.723 8.59 17.013 8.5 16.304C8.452 15.884 8.37867 15.4677 8.28 15.055C8.58067 14.9983 8.884 14.975 9.19 14.985H11.388L16.703 14.595C17.762 14.535 18.811 14.455 19.87 14.405H20.17C20.17 15.105 20.06 15.755 20.03 16.404V19.231L14.824 19.331ZM26.813 15.415V17.223C26.813 17.613 26.813 18.013 26.723 18.392C26.7049 18.5434 26.6782 18.6937 26.643 18.842C26.643 18.932 26.643 19.042 26.523 19.082C26.4152 19.1284 26.3002 19.1555 26.183 19.162H22.997L20.839 19.212C20.949 18.772 21.039 18.332 21.109 17.902C21.179 17.472 21.179 17.303 21.189 17.003C21.199 16.703 21.189 16.403 21.189 16.104C21.1277 15.5292 21.0308 14.9588 20.899 14.396H25.444C25.7787 14.392 26.112 14.412 26.444 14.456C26.5898 14.4701 26.7318 14.5108 26.863 14.576C26.593 14.676 26.813 15.175 26.813 15.415ZM6.102 16.984C6.04961 16.1805 5.84605 15.394 5.502 14.666C5.47567 14.592 5.42136 14.5313 5.35075 14.4969C5.28014 14.4625 5.19885 14.4572 5.12435 14.482C5.04985 14.5069 4.98808 14.56 4.9523 14.6299C4.91652 14.6999 4.90959 14.781 4.933 14.856C5.00777 15.4998 5.00777 16.1502 4.933 16.794V18.144C4.96564 18.9411 5.11732 19.7288 5.383 20.481C5.40656 20.5692 5.46367 20.6448 5.54214 20.6915C5.6206 20.7382 5.71422 20.7524 5.803 20.731C5.89104 20.7072 5.96633 20.65 6.01284 20.5716C6.05934 20.4932 6.07339 20.3997 6.052 20.311C5.98861 19.6632 5.98861 19.0108 6.052 18.363C6.09307 17.9045 6.10976 17.4442 6.102 16.984ZM6.162 8.41301C5.78422 7.90561 5.44971 7.36738 5.162 6.80401C5.04752 6.5422 4.99774 6.25667 5.01689 5.97157C5.03603 5.68646 5.12354 5.41016 5.272 5.16601C5.6357 4.60042 6.14296 4.14147 6.742 3.83601C6.77818 3.8198 6.81078 3.7966 6.83793 3.76772C6.86508 3.73885 6.88624 3.70488 6.90019 3.66778C6.91414 3.63068 6.9206 3.59118 6.91919 3.55157C6.91779 3.51196 6.90855 3.47302 6.892 3.43701C6.87581 3.40071 6.85256 3.36799 6.82361 3.34075C6.79466 3.31352 6.76059 3.2923 6.72337 3.27835C6.68616 3.26439 6.64654 3.25797 6.60682 3.25946C6.5671 3.26094 6.52807 3.27031 6.492 3.28701C5.57287 3.6201 4.79873 4.26339 4.303 5.10601C4.13834 5.42382 4.03852 5.77119 4.00933 6.12793C3.98015 6.48468 4.02219 6.84366 4.133 7.18401C4.42069 7.82681 4.78284 8.43363 5.212 8.99201C5.583 9.47101 5.874 10.007 6.071 10.58C6.13242 10.7922 6.14083 11.0162 6.0955 11.2324C6.05017 11.4486 5.95248 11.6504 5.811 11.82C5.72396 11.9225 5.6268 12.016 5.521 12.099C5.40434 12.1917 5.281 12.275 5.151 12.349C5.07011 12.3914 5.00939 12.4643 4.9822 12.5515C4.95501 12.6387 4.96357 12.7331 5.006 12.814C5.04844 12.8949 5.12127 12.9556 5.20847 12.9828C5.29568 13.01 5.39011 13.0014 5.471 12.959C5.65634 12.881 5.833 12.7877 6.001 12.679C6.12979 12.59 6.25028 12.4896 6.361 12.379C6.6275 12.1272 6.82519 11.8115 6.93528 11.4618C7.04537 11.1121 7.06421 10.74 6.99 10.381C6.84459 9.67707 6.56261 9.00847 6.16 8.41301M8.75 9.11201C8.926 9.42001 9.041 9.75901 9.089 10.111C9.119 10.355 9.084 10.603 8.989 10.831C8.7951 11.2314 8.55334 11.6068 8.269 11.949C8.24011 11.9831 8.21823 12.0226 8.2046 12.0652C8.19098 12.1079 8.18588 12.1527 8.18959 12.1973C8.19331 12.2419 8.20576 12.2853 8.22625 12.325C8.24674 12.3648 8.27486 12.4001 8.309 12.429C8.34315 12.4579 8.38265 12.4798 8.42525 12.4934C8.46785 12.507 8.51272 12.5121 8.55729 12.5084C8.60186 12.5047 8.64526 12.4922 8.68502 12.4718C8.72478 12.4513 8.76011 12.4231 8.789 12.389C9.17185 12.0405 9.50798 11.6438 9.789 11.209C9.986 10.866 10.093 10.478 10.098 10.081C10.1005 9.70922 10.0362 9.34001 9.908 8.99101C9.59037 8.3887 9.34211 7.7523 9.168 7.09401C9.12396 6.84297 9.14461 6.58485 9.228 6.34401C9.32 6.04734 9.44334 5.76434 9.598 5.49501C9.68867 5.35167 9.78867 5.21501 9.898 5.08501C10.018 4.95501 10.148 4.83534 10.288 4.72601C10.3222 4.70486 10.3516 4.67684 10.3744 4.64372C10.3972 4.6106 10.4129 4.5731 10.4204 4.5336C10.4279 4.49411 10.4271 4.45348 10.4181 4.4143C10.4091 4.37512 10.392 4.33824 10.368 4.30601C10.3249 4.25219 10.2646 4.21485 10.1972 4.20028C10.1298 4.18571 10.0595 4.19479 9.998 4.22601C9.81416 4.33007 9.64012 4.45056 9.478 4.58601C9.308 4.70934 9.14834 4.84601 8.999 4.99601C8.69709 5.34588 8.45087 5.74017 8.269 6.16501C8.14188 6.48211 8.08392 6.8227 8.099 7.16401C8.102 7.44401 8.142 7.72401 8.219 7.99301C8.369 8.37834 8.54667 8.75134 8.75 9.11201Z" fill="#C9A94D"/>
</g>
<defs>
<filter id="filter0_d_8_909" x="0" y="0" width="32" height="32" filterUnits="userSpaceOnUse" color-interpolation-filters="sRGB">
<feFlood flood-opacity="0" result="BackgroundImageFix"/>
<feColorMatrix in="SourceAlpha" type="matrix" values="0 0 0 0 0 0 0 0 0 0 0 0 0 0 0 0 0 0 127 0" result="hardAlpha"/>
<feOffset dy="4"/>
<feGaussianBlur stdDeviation="2"/>
<feComposite in2="hardAlpha" operator="out"/>
<feColorMatrix type="matrix" values="0 0 0 0 0 0 0 0 0 0 0 0 0 0 0 0 0 0 0.25 0"/>
<feBlend mode="normal" in2="BackgroundImageFix" result="effect1_dropShadow_8_909"/>
<feBlend mode="normal" in="SourceGraphic" in2="effect1_dropShadow_8_909" result="shape"/>
</filter>
</defs>
</svg>
