<svg width="24" height="24" viewBox="0 0 24 24" fill="none" xmlns="http://www.w3.org/2000/svg">
<g clip-path="url(#clip0_8_913)">
<path d="M22.25 0.75H1.75C1.48478 0.75 1.23043 0.855357 1.04289 1.04289C0.855357 1.23043 0.75 1.48478 0.75 1.75V22.25C0.75 22.5152 0.855357 22.7696 1.04289 22.9571C1.23043 23.1446 1.48478 23.25 1.75 23.25H22.25C22.5152 23.25 22.7696 23.1446 22.9571 22.9571C23.1446 22.7696 23.25 22.5152 23.25 22.25V1.75C23.25 1.48478 23.1446 1.23043 22.9571 1.04289C22.7696 0.855357 22.5152 0.75 22.25 0.75Z" stroke="#C9A94D" stroke-width="1.5" stroke-linecap="round" stroke-linejoin="round"/>
<path d="M4.5 23.25V10.5C4.5 10.3011 4.57902 10.1103 4.71967 9.96967C4.86032 9.82902 5.05109 9.75 5.25 9.75H15.75C15.9489 9.75 16.1397 9.82902 16.2803 9.96967C16.421 10.1103 16.5 10.3011 16.5 10.5V23.25M10.5 9.75V23.25" stroke="#C9A94D" stroke-width="1.5" stroke-linecap="round" stroke-linejoin="round"/>
<path d="M19.875 14.25C19.7755 14.25 19.6802 14.2105 19.6098 14.1402C19.5395 14.0698 19.5 13.9745 19.5 13.875C19.5 13.7755 19.5395 13.6802 19.6098 13.6098C19.6802 13.5395 19.7755 13.5 19.875 13.5M19.875 14.25C19.9745 14.25 20.0698 14.2105 20.1402 14.1402C20.2105 14.0698 20.25 13.9745 20.25 13.875C20.25 13.7755 20.2105 13.6802 20.1402 13.6098C20.0698 13.5395 19.9745 13.5 19.875 13.5M19.875 18C19.7755 18 19.6802 17.9605 19.6098 17.8902C19.5395 17.8198 19.5 17.7245 19.5 17.625C19.5 17.5255 19.5395 17.4302 19.6098 17.3598C19.6802 17.2895 19.7755 17.25 19.875 17.25M19.875 18C19.9745 18 20.0698 17.9605 20.1402 17.8902C20.2105 17.8198 20.25 17.7245 20.25 17.625C20.25 17.5255 20.2105 17.4302 20.1402 17.3598C20.0698 17.2895 19.9745 17.25 19.875 17.25" stroke="#C9A94D" stroke-width="1.5"/>
<path d="M7.5 6H13.5" stroke="#C9A94D" stroke-width="1.5" stroke-linecap="round" stroke-linejoin="round"/>
</g>
<defs>
<clipPath id="clip0_8_913">
<rect width="24" height="24" fill="white"/>
</clipPath>
</defs>
</svg>
