<svg width="24" height="24" viewBox="0 0 24 24" fill="none" xmlns="http://www.w3.org/2000/svg">
<path d="M21.7964 18.6173L18.1711 13.611C17.9985 13.3733 17.7723 13.1798 17.5107 13.0462C17.2491 12.9126 16.9597 12.8427 16.666 12.8423H12.0241V11.8485H15.6259C15.9947 11.8442 16.3469 11.6948 16.6061 11.4325C16.8653 11.1702 17.0107 10.8164 17.0107 10.4476C17.0107 10.0788 16.8653 9.72494 16.6061 9.46269C16.3469 9.20043 15.9947 9.05096 15.6259 9.04669H12.0241V7.43269C12.0239 7.14961 11.9589 6.87033 11.8341 6.61625C11.7093 6.36217 11.528 6.14002 11.3041 5.96682C11.8394 5.70893 12.2713 5.27692 12.5291 4.74152C12.7869 4.20612 12.8552 3.59906 12.723 3.01974C12.5907 2.44043 12.2657 1.92318 11.8011 1.5527C11.3365 1.18223 10.7599 0.980469 10.1657 0.980469C9.57143 0.980469 8.99482 1.18223 8.53023 1.5527C8.06563 1.92318 7.7406 2.44043 7.60833 3.01974C7.47607 3.59906 7.54443 4.20612 7.8022 4.74152C8.05998 5.27692 8.49191 5.70893 9.02725 5.96682C8.80331 6.13999 8.62199 6.36213 8.49719 6.61622C8.37239 6.87031 8.30741 7.1496 8.30725 7.43269V9.45319C6.9947 9.51664 5.72881 9.95986 4.66334 10.729C3.59787 11.4982 2.77867 12.5602 2.30525 13.786C1.83182 15.0119 1.72455 16.3488 1.99644 17.6345C2.26834 18.9201 2.90771 20.0991 3.8369 21.0284C4.76609 21.9576 5.94511 22.597 7.23075 22.8689C8.5164 23.1408 9.85334 23.0336 11.0792 22.5602C12.3051 22.0868 13.3671 21.2676 14.1363 20.2022C14.9055 19.1367 15.3487 17.8709 15.4122 16.5583H15.7165L18.7853 20.7969C18.9279 20.9951 19.1085 21.1629 19.3164 21.2908C19.5243 21.4187 19.7556 21.5041 19.9968 21.5421C20.0952 21.5579 20.1948 21.5658 20.2945 21.5659C20.6366 21.565 20.9718 21.4697 21.2633 21.2906C21.5547 21.1114 21.7911 20.8553 21.9463 20.5504C22.1016 20.2456 22.1697 19.9038 22.1432 19.5627C22.1166 19.2216 21.9965 18.8944 21.796 18.6173H21.7964ZM8.19888 3.6075C8.19888 3.21854 8.31422 2.83831 8.53031 2.51489C8.7464 2.19147 9.05355 1.9394 9.4129 1.79054C9.77226 1.64168 10.1677 1.60272 10.5492 1.67859C10.9307 1.75446 11.2811 1.94175 11.5562 2.21678C11.8312 2.49181 12.0185 2.84222 12.0944 3.22371C12.1703 3.60519 12.1314 4.00062 11.9826 4.35999C11.8338 4.71936 11.5817 5.02653 11.2583 5.24265C10.9349 5.45878 10.5547 5.57415 10.1658 5.57419C9.64429 5.57369 9.14432 5.36634 8.77558 4.99762C8.40683 4.62891 8.19942 4.12897 8.19888 3.6075ZM10.1658 16.5583H13.0034C12.9407 17.3946 12.6394 18.1952 12.1352 18.8653C11.6309 19.5353 10.945 20.0466 10.1588 20.3383C9.37258 20.6301 8.51917 20.69 7.6999 20.5111C6.88063 20.3322 6.12993 19.9219 5.53695 19.3289C4.94397 18.736 4.53363 17.9853 4.35467 17.166C4.1757 16.3467 4.23564 15.4933 4.52734 14.7071C4.81905 13.9209 5.33027 13.2349 6.0003 12.7307C6.67033 12.2264 7.47101 11.9251 8.30725 11.8624V14.7002C8.30785 15.1929 8.50386 15.6652 8.85227 16.0136C9.20069 16.3619 9.67306 16.5578 10.1658 16.5583ZM8.63538 22.3596C7.03775 22.3604 5.50295 21.7373 4.35795 20.6231C3.21295 19.509 2.54825 17.9917 2.50547 16.3947C2.46269 14.7976 3.04521 13.247 4.12892 12.0731C5.21263 10.8992 6.71187 10.1949 8.30725 10.1102V11.2044C7.34093 11.2674 6.41324 11.6076 5.63527 12.1842C4.8573 12.7608 4.26204 13.5495 3.92077 14.4558C3.57949 15.362 3.50667 16.3474 3.71103 17.294C3.91538 18.2405 4.38825 19.1081 5.07301 19.7929C5.75776 20.4776 6.62537 20.9504 7.57194 21.1548C8.51852 21.3591 9.50392 21.2862 10.4102 20.9449C11.3164 20.6036 12.105 20.0083 12.6816 19.2303C13.2582 18.4523 13.5984 17.5246 13.6613 16.5583H14.7559C14.6702 18.1243 13.9882 19.5979 12.85 20.6768C11.7117 21.7557 10.2037 22.3578 8.63538 22.3596ZM20.9958 20.6809C20.7375 20.8678 20.4155 20.9444 20.1007 20.894C19.786 20.8436 19.5041 20.6702 19.3171 20.412L16.1502 16.0378C16.1198 15.9958 16.0798 15.9616 16.0337 15.938C15.9875 15.9144 15.9364 15.9021 15.8845 15.9021H10.1658C9.84705 15.9018 9.54148 15.7751 9.31609 15.5497C9.0907 15.3244 8.9639 15.0189 8.9635 14.7002V7.43269C8.96151 7.27356 8.99114 7.11561 9.05066 6.96802C9.11019 6.82042 9.19842 6.68611 9.31025 6.57288C9.42207 6.45965 9.55527 6.36974 9.70211 6.30838C9.84895 6.24702 10.0065 6.21543 10.1657 6.21543C10.3248 6.21543 10.4824 6.24702 10.6292 6.30838C10.776 6.36974 10.9092 6.45965 11.0211 6.57288C11.1329 6.68611 11.2211 6.82042 11.2807 6.96802C11.3402 7.11561 11.3698 7.27356 11.3678 7.43269V9.37519C11.3678 9.41829 11.3763 9.46097 11.3927 9.50079C11.4092 9.54061 11.4334 9.57679 11.4639 9.60726C11.4943 9.63774 11.5305 9.66191 11.5703 9.67839C11.6102 9.69487 11.6528 9.70334 11.6959 9.70331H15.6259C15.8214 9.70642 16.0078 9.78623 16.1449 9.92555C16.282 10.0649 16.3589 10.2525 16.3589 10.448C16.3589 10.6434 16.282 10.8311 16.1449 10.9704C16.0078 11.1097 15.8214 11.1895 15.6259 11.1926H11.6959C11.6089 11.1926 11.5255 11.2272 11.4639 11.2887C11.4024 11.3503 11.3678 11.4337 11.3678 11.5208V13.1708C11.3678 13.2138 11.3763 13.2565 11.3927 13.2963C11.4092 13.3362 11.4334 13.3724 11.4639 13.4028C11.4943 13.4333 11.5305 13.4575 11.5703 13.4739C11.6102 13.4904 11.6528 13.4989 11.6959 13.4989H16.6658C16.8558 13.4991 17.0431 13.5443 17.2123 13.6307C17.3815 13.7172 17.5279 13.8424 17.6395 13.9961L21.2646 19.0024C21.4513 19.2608 21.5279 19.5827 21.4775 19.8975C21.4271 20.2123 21.2538 20.4942 20.9958 20.6814V20.6809Z" fill="#C9A94D"/>
</svg>
