<svg width="24" height="24" viewBox="0 0 24 24" fill="none" xmlns="http://www.w3.org/2000/svg">
<g clip-path="url(#clip0_3122_12422)">
<path d="M23.6484 2.46211C23.7417 2.46211 23.8311 2.42507 23.897 2.35914C23.963 2.29321 24 2.20379 24 2.11055V0.351562C24 0.258322 23.963 0.168901 23.897 0.10297C23.8311 0.0370395 23.7417 0 23.6484 0L15.8516 0C15.7583 0 15.6689 0.0370395 15.603 0.10297C15.5371 0.168901 15.5 0.258322 15.5 0.351562V9.48436C15.5 9.5776 15.5371 9.66702 15.603 9.73295C15.6689 9.79888 15.7583 9.83592 15.8516 9.83592H19.3984V23.2969H11.5941C12.1427 22.8991 12.5784 22.3547 12.8431 21.7217H17.4872C17.9489 21.7217 18.3244 21.3462 18.3244 20.8845V20.1075C18.3244 19.6661 17.981 19.3035 17.5473 19.2725V17.7429C17.5473 15.9534 16.3332 14.6786 14.7413 14.0949L8.7112 11.8958L5.96414 8.38955C5.06297 7.23933 3.70809 6.57966 2.24686 6.57966H0.351562C0.157359 6.57966 0 6.73706 0 6.93122C0 7.12537 0.157359 7.28278 0.351562 7.28278H2.24691C3.49055 7.28278 4.64372 7.84425 5.41069 8.82319L8.21972 12.4085C8.26019 12.4601 8.31433 12.4994 8.376 12.5219L14.2703 14.6715V16.286C14.2703 17.2831 15.0817 18.0945 16.0788 18.0945H16.8442V19.2703H12.9831C12.4361 17.2213 10.0047 16.0016 8.00316 16.8787C7.91708 16.9146 7.84878 16.9831 7.81327 17.0694C7.77776 17.1556 7.77795 17.2524 7.8138 17.3384C7.84966 17.4245 7.91824 17.4928 8.00445 17.5283C8.09067 17.5638 8.18746 17.5636 8.27353 17.5278C10.2002 16.6923 12.4565 18.1948 12.4249 20.2976C12.4249 21.9514 11.0794 23.2969 9.42558 23.2969C7.00692 23.3174 5.55872 20.4866 6.99473 18.5416C7.0494 18.4661 7.07181 18.3719 7.05705 18.2799C7.04229 18.1878 6.99155 18.1054 6.91601 18.0507C6.84046 17.996 6.7463 17.9736 6.65423 17.9884C6.56216 18.0031 6.47973 18.0539 6.42506 18.1294C6.17189 18.4792 5.98458 18.8641 5.86739 19.2704H0.351562C0.157359 19.2704 0 19.4278 0 19.6219C0 19.8161 0.157359 19.9735 0.351562 19.9735H5.73712C5.70687 20.3228 5.7259 20.6746 5.79366 21.0187H0.351562C0.157359 21.0187 0 21.1761 0 21.3702C0 21.5644 0.157359 21.7218 0.351562 21.7218H6.00802C6.27277 22.3548 6.70847 22.8991 7.25709 23.2969H0.351562C0.157359 23.2969 0 23.4543 0 23.6485C0 23.8426 0.157359 24 0.351562 24H23.6484C23.8426 24 24 23.8426 24 23.6485C24 23.4543 23.8426 23.2969 23.6484 23.2969H20.1015V9.83592H23.6484C23.7417 9.83592 23.8311 9.79888 23.897 9.73295C23.963 9.66702 24 9.5776 24 9.48436V3.98372C23.9863 3.52059 23.3116 3.51773 23.2969 3.98372V9.1328H16.2031V0.703125H23.2969V2.11055C23.2969 2.20379 23.3339 2.29321 23.3998 2.35914C23.4658 2.42507 23.5552 2.46211 23.6484 2.46211ZM16.0788 17.3914C15.4693 17.3914 14.9735 16.8955 14.9735 16.286V14.9316C15.9755 15.3509 16.7029 16.314 16.8237 17.3914H16.0788ZM17.4872 19.9735C17.5227 19.9735 17.5568 19.9877 17.5819 20.0128C17.6071 20.0379 17.6212 20.072 17.6213 20.1075V20.8845C17.6212 20.9201 17.6071 20.9542 17.5819 20.9793C17.5568 21.0044 17.5227 21.0186 17.4872 21.0186H13.0575C13.1247 20.6835 13.1447 20.3194 13.114 19.9734H17.4872V19.9735Z" fill="#C9A94D"/>
<path d="M17.3378 6.0702C17.3584 8.35119 20.3967 9.05127 21.4179 7.04783L21.4988 7.20322C21.6362 7.3873 21.7943 7.43717 21.9729 7.35284C22.0556 7.3098 22.1178 7.23567 22.1459 7.14675C22.1739 7.05783 22.1655 6.96141 22.1225 6.8787L21.234 5.17105C21.2044 5.11397 21.1596 5.06613 21.1046 5.03275C21.0496 4.99937 20.9865 4.98171 20.9222 4.98172H19.8532V4.60789H20.9222C21.1164 4.60789 21.2737 4.45048 21.2737 4.25633C21.2737 4.06217 21.1164 3.90477 20.9222 3.90477H19.8532V3.51073C20.8571 3.11014 20.5971 1.62116 19.5016 1.60156C18.4059 1.62125 18.1462 3.11033 19.15 3.51073V3.93237C18.124 4.09831 17.3378 4.99381 17.3378 6.0702ZM20.7088 5.68489L20.9457 6.14028C20.9092 6.91419 20.2721 7.53247 19.4941 7.53247C17.772 7.49122 17.505 5.08705 19.15 4.64937V5.33333C19.15 5.42657 19.1871 5.51599 19.253 5.58192C19.3189 5.64785 19.4084 5.68489 19.5016 5.68489H20.7088ZM19.5016 2.30473C19.8727 2.31659 19.8726 2.86095 19.5016 2.87277C19.1305 2.86091 19.1306 2.31655 19.5016 2.30473ZM0.353484 12.9125C-0.110016 12.9247 -0.115781 13.5983 0.349641 13.6156L6.94884 13.6419C7.2758 13.5693 7.36894 13.381 7.22836 13.0771L4.5885 9.61681C4.33727 9.26159 4.00453 8.97179 3.61819 8.77171C3.23185 8.57162 2.80316 8.46709 2.36808 8.46688H0.351562C0.157359 8.46688 0 8.62428 0 8.81844C0 9.01259 0.157359 9.17 0.351562 9.17H2.36808C2.69154 9.17017 3.01021 9.2481 3.29724 9.39722C3.58427 9.54635 3.83124 9.7623 4.01733 10.0269C4.02 10.0306 4.02267 10.0344 4.02548 10.038L6.2385 12.9388L0.353484 12.9125ZM11.0884 20.2982C11.0884 19.3813 10.3425 18.6354 9.42558 18.6354C7.22269 18.719 7.2233 21.8777 9.42558 21.9609C10.3425 21.961 11.0884 21.215 11.0884 20.2982ZM8.46591 20.2982C8.46591 19.769 8.89641 19.3385 9.42558 19.3385C10.6969 19.3867 10.6966 21.2098 9.42558 21.2578C8.89641 21.2578 8.46591 20.8273 8.46591 20.2982Z" fill="#C9A94D"/>
</g>
<defs>
<clipPath id="clip0_3122_12422">
<rect width="24" height="24" fill="white"/>
</clipPath>
</defs>
</svg>
