<svg width="24" height="24" viewBox="0 0 24 24" fill="none" xmlns="http://www.w3.org/2000/svg">
<path d="M7 8C6.45 8 5.97933 7.80433 5.588 7.413C5.19667 7.02167 5.00067 6.55067 5 6C4.99933 5.44933 5.19533 4.97867 5.588 4.588C5.98067 4.19733 6.45133 4.00133 7 4C7.54867 3.99867 8.01967 4.19467 8.413 4.588C8.80633 4.98133 9.002 5.452 9 6C8.998 6.548 8.80233 7.019 8.413 7.413C8.02367 7.807 7.55267 8.00267 7 8ZM4 22C3.45 22 2.97933 21.8043 2.588 21.413C2.19667 21.0217 2.00067 20.5507 2 20V12H5V11.25C5 10.6167 5.21667 10.0833 5.65 9.65C6.08333 9.21667 6.61667 9 7.25 9C7.58333 9 7.89167 9.06667 8.175 9.2C8.45833 9.33333 8.71667 9.51667 8.95 9.75L10.35 11.3C10.4667 11.4333 10.5917 11.5583 10.725 11.675C10.8583 11.7917 11 11.9 11.15 12H22V20C22 20.55 21.8043 21.021 21.413 21.413C21.0217 21.805 20.5507 22.0007 20 22H4ZM18 10L18.1 9.4C18.1833 8.98333 18.154 8.579 18.012 8.187C17.87 7.795 17.6493 7.44933 17.35 7.15C16.8667 6.66667 16.5083 6.10433 16.275 5.463C16.0417 4.82167 15.9667 4.15067 16.05 3.45L16.1 3H18L17.9 3.6C17.8333 4 17.8627 4.396 17.988 4.788C18.1133 5.18 18.3173 5.51733 18.6 5.8C19.1 6.3 19.471 6.875 19.713 7.525C19.955 8.175 20.034 8.85 19.95 9.55L19.9 10H18ZM14 10L14.1 9.4C14.1833 8.98333 14.154 8.579 14.012 8.187C13.87 7.795 13.6493 7.44933 13.35 7.15C12.8667 6.66667 12.5083 6.10433 12.275 5.463C12.0417 4.82167 11.9667 4.15067 12.05 3.45L12.1 3H14L13.9 3.6C13.8167 4 13.8417 4.396 13.975 4.788C14.1083 5.18 14.3167 5.51733 14.6 5.8C15.1 6.3 15.471 6.875 15.713 7.525C15.955 8.175 16.034 8.85 15.95 9.55L15.9 10H14ZM17 20H19V14H17V20ZM13 20H15V14H13V20ZM9 20H11V14H9V20ZM5 20H7V14H5V20Z" fill="#C9A94D"/>
</svg>
