<svg width="24" height="24" viewBox="0 0 24 24" fill="none" xmlns="http://www.w3.org/2000/svg">
<path d="M6.5 5H15C16.886 5 17.828 5 18.414 5.586C19 6.172 19 7.114 19 9V12C19 13.886 19 14.828 18.414 15.414C17.828 16 16.886 16 15 16H12C10.114 16 9.172 16 8.586 15.414C8 14.828 8 13.886 8 12V8M6.5 5C6.10218 5 5.72064 5.15804 5.43934 5.43934C5.15804 5.72064 5 6.10218 5 6.5V8M6.5 5C6.89782 5 7.27936 5.15804 7.56066 5.43934C7.84196 5.72064 8 6.10218 8 6.5V8M8 8H5M5 8C4.068 8 3.602 8 3.235 7.848C2.99218 7.74749 2.77155 7.6001 2.58572 7.41428C2.3999 7.22845 2.25251 7.00782 2.152 6.765C2 6.398 2 5.932 2 5V4M17 16C17 17.886 17 18.828 16.414 19.414C15.828 20 14.886 20 13 20H9C7.114 20 6.172 20 5.586 19.414C5 18.828 5 17.886 5 16V11M22 4V5C22 5.932 22 6.398 21.848 6.765C21.7475 7.00782 21.6001 7.22845 21.4143 7.41428C21.2284 7.6001 21.0078 7.74749 20.765 7.848C20.398 8 19.932 8 19 8" stroke="#C9A94D" stroke-width="1.5" stroke-linecap="round" stroke-linejoin="round"/>
</svg>
