<svg width="24" height="24" viewBox="0 0 24 24" fill="none" xmlns="http://www.w3.org/2000/svg">
<path d="M19.2 19.2V16.8C19.2 16.352 19.552 16 20 16H21.6C22.048 16 22.4 16.352 22.4 16.8V21.6C22.4 22.048 22.048 22.4 21.6 22.4H2.4C1.952 22.4 1.6 22.048 1.6 21.6V16.8C1.6 16.352 1.952 16 2.4 16H4C4.448 16 4.8 16.352 4.8 16.8V19.2H19.2ZM11.2 8.80001L9.056 7.72801C8.259 7.33012 7.58844 6.71829 7.11937 5.96099C6.6503 5.20369 6.40122 4.33081 6.4 3.44001V1.60001C8.96 2.44801 10.992 4.36801 12 6.81601C13.008 4.36801 15.04 2.44801 17.6 1.60001V3.44001C17.5988 4.33081 17.3497 5.20369 16.8806 5.96099C16.4116 6.71829 15.741 7.33012 14.944 7.72801L12.8 8.80001V12.736C14.3198 10.4631 16.5821 8.78896 19.2 8.00001C19.2004 9.84425 18.5635 11.632 17.3973 13.0606C16.231 14.4893 14.607 15.4712 12.8 15.84V18.4H11.2V15.84C9.39301 15.4712 7.76896 14.4893 6.60271 13.0606C5.43645 11.632 4.79962 9.84425 4.8 8.00001C7.41788 8.78896 9.68024 10.4631 11.2 12.736V8.80001Z" fill="#C9A94D"/>
</svg>
