<svg width="24" height="24" viewBox="0 0 24 24" fill="none" xmlns="http://www.w3.org/2000/svg">
<g clip-path="url(#clip0_8_903)">
<path d="M0.75 22.814C1.81672 23.2439 2.98437 23.3586 4.11437 23.1447C5.24437 22.9307 6.28925 22.3971 7.125 21.607C8.23933 22.662 9.7155 23.2499 11.25 23.2499C12.7845 23.2499 14.2607 22.662 15.375 21.607C16.4271 22.6029 17.804 23.1845 19.2515 23.2444C20.6989 23.3043 22.1192 22.8385 23.25 21.933M17.25 18.75V3.75C17.25 2.95435 17.5661 2.19129 18.1287 1.62868C18.6913 1.06607 19.4544 0.75 20.25 0.75C21.0456 0.75 21.8087 1.06607 22.3713 1.62868C22.9339 2.19129 23.25 2.95435 23.25 3.75M8.25 18.75V3.75C8.25 2.95435 8.56607 2.19129 9.12868 1.62868C9.69129 1.06607 10.4544 0.75 11.25 0.75C12.0456 0.75 12.8087 1.06607 13.3713 1.62868C13.9339 2.19129 14.25 2.95435 14.25 3.75M8.25 11.25H17.25M8.25 15.75H17.25M8.25 6.75H17.25" stroke="#C9A94D" stroke-width="1.5" stroke-linecap="round" stroke-linejoin="round"/>
</g>
<defs>
<clipPath id="clip0_8_903">
<rect width="24" height="24" fill="white"/>
</clipPath>
</defs>
</svg>
