<svg width="24" height="24" viewBox="0 0 24 24" fill="none" xmlns="http://www.w3.org/2000/svg">
<path d="M22 9C21.2239 9.02044 20.4568 8.83038 19.78 8.45C19.2392 8.13961 18.6234 7.98393 18 8V7C18.7761 6.97956 19.5432 7.16962 20.22 7.55C20.7608 7.86039 21.3766 8.01607 22 8M22 6C21.3766 6.01607 20.7608 5.86039 20.22 5.55C19.5432 5.16962 18.7761 4.97956 18 5V6C18.6234 5.98393 19.2392 6.13961 19.78 6.45C20.4568 6.83038 21.2239 7.02044 22 7M22 10C21.3766 10.0161 20.7608 9.86039 20.22 9.55C19.5432 9.16962 18.7761 8.97956 18 9V10C18.6234 9.98393 19.2392 10.1396 19.78 10.45C20.4568 10.8304 21.2239 11.0204 22 11M10 12.73C12.3615 12.274 14.6979 11.6965 17 11V4C17 4 10.5 2 7.5 2C6.1645 2.00376 4.87599 2.49332 3.87493 3.37732C2.87386 4.26132 2.22865 5.47936 2.05968 6.80414C1.89072 8.12891 2.20955 9.46991 2.95668 10.5769C3.70381 11.6838 4.8282 12.4811 6.12 12.82L7 19H8C8.03999 19.4766 8.19337 19.9368 8.44735 20.3421C8.70132 20.7474 9.04853 21.0861 9.46 21.33C9.92394 21.6058 10.3092 21.9962 10.5789 22.4638C10.8486 22.9313 10.9936 23.4603 11 24H12C11.9955 23.3111 11.8182 22.6344 11.4846 22.0316C11.1509 21.4289 10.6714 20.9195 10.09 20.55C9.39 20 9 19.63 9 19H10M7.5 10C7.00555 10 6.5222 9.85338 6.11108 9.57867C5.69996 9.30397 5.37952 8.91352 5.19031 8.45671C5.00109 7.99989 4.95158 7.49723 5.04804 7.01227C5.1445 6.52732 5.38261 6.08186 5.73224 5.73223C6.08187 5.3826 6.52733 5.1445 7.01228 5.04804C7.49723 4.95157 7.9999 5.00108 8.45671 5.1903C8.91353 5.37952 9.30398 5.69995 9.57868 6.11107C9.85338 6.5222 10 7.00555 10 7.5C10 8.16304 9.73661 8.79893 9.26777 9.26777C8.79893 9.73661 8.16305 10 7.5 10Z" fill="#C9A94D"/>
</svg>
